<svg version="1.2" xmlns="http://www.w3.org/2000/svg" viewBox="0 0 537 537" width="100" height="100" fill="#00000020"><path  d="m267 537c-182.4 0-261.5-159-268-238.9 74.4 0.1 119.7-0.1 119.7-0.1 0 0 32.3 123.1 148.3 120.5 103.8-2.4 136-78 146.2-120.4 63.2 0 70.7 0 120.8 0-4.8 64.7-75.2 238.9-267 238.9z"/><path  d="m267 0c182.4 0 261.5 159 268 238.9-74.4-0.1-119.7 0.1-119.7 0.1 0 0-32.3-123.1-148.3-120.5-103.8 2.4-136 78-146.2 120.4-63.2 0-70.7 0-120.8 0 4.8-64.7 75.2-238.9 267-238.9z"/><path  d="m268 369c-55.3 0-100-44.7-100-100 0-55.3 44.7-100 100-100 55.3 0 100 44.7 100 100 0 55.3-44.7 100-100 100z"/></svg>