<svg version="1.2" xmlns="http://www.w3.org/2000/svg" viewBox="0 0 537 537" width="100" height="100" fill="#00000020"><path d="M267 537C84.6 537 5.5 378-1 298.1c74.4.1 119.7-.1 119.7-.1S151 421.1 267 418.5c103.8-2.4 136-78 146.2-120.4H534C529.2 362.8 458.8 537 267 537zM267 0c182.4 0 261.5 159 268 238.9-74.4-.1-119.7.1-119.7.1S383 115.9 267 118.5c-103.8 2.4-136 78-146.2 120.4H0C4.8 174.2 75.2 0 267 0z"/><path d="M268 369c-55.3 0-100-44.7-100-100s44.7-100 100-100 100 44.7 100 100-44.7 100-100 100z"/></svg>